<svg width="48" height="48" viewBox="0 0 48 48" fill="none" xmlns="http://www.w3.org/2000/svg">
<rect x="0.5" y="0.5" width="47" height="47" rx="5.5" stroke="white" stroke-opacity="0.295743"/>
<path fill-rule="evenodd" clip-rule="evenodd" d="M18.9355 28.1924C18.5449 28.5829 18.5449 29.2161 18.9355 29.6066C19.326 29.9971 19.9592 29.9971 20.3497 29.6066L25.0527 24.9036L30.0819 29.1236C30.5049 29.4786 31.1357 29.4234 31.4907 29.0003C31.8457 28.5773 31.7905 27.9465 31.3674 27.5915L26.4723 23.484L30.2492 19.7071C30.6397 19.3166 30.6397 18.6834 30.2492 18.2929C29.8587 17.9024 29.2255 17.9024 28.835 18.2929L24.9343 22.1935L20.6428 18.5925C20.2197 18.2375 19.589 18.2927 19.234 18.7157C18.879 19.1388 18.9342 19.7696 19.3572 20.1246L23.5147 23.6131L18.9355 28.1924Z" fill="white"/>
</svg>
